<mxfile host="app.diagrams.net" modified="2021-12-12T20:55:36.780Z" agent="5.0 (Windows)" etag="n39iJeIODUmJhsQezjy-" version="15.9.1" type="github">
  <diagram id="nZqawqV_5iRsv1dpTXvW" name="Page-1">
    <mxGraphModel dx="868" dy="507" grid="1" gridSize="10" guides="1" tooltips="1" connect="1" arrows="1" fold="1" page="1" pageScale="1" pageWidth="827" pageHeight="1169" math="0" shadow="0">
      <root>
        <mxCell id="0" />
        <mxCell id="1" parent="0" />
        <mxCell id="--tGtvQFtkYurJ3q_EW3-1" value="" style="rounded=0;whiteSpace=wrap;html=1;fillColor=#fff2cc;strokeColor=#d6b656;" vertex="1" parent="1">
          <mxGeometry x="160" y="110" width="200" height="140" as="geometry" />
        </mxCell>
      </root>
    </mxGraphModel>
  </diagram>
</mxfile>
